<mxfile host="app.diagrams.net" modified="2023-10-10T00:54:22.474Z" agent="Mozilla/5.0 (Macintosh; Intel Mac OS X 10_15_7) AppleWebKit/537.36 (KHTML, like Gecko) Chrome/117.0.0.0 Safari/537.36" etag="PYiZ72T-Zji8U7DtSeOU" version="22.0.4" type="device">
  <diagram name="Page-1" id="V4wbKNGJBco0nnBHFYRO">
    <mxGraphModel dx="2014" dy="1910" grid="1" gridSize="10" guides="1" tooltips="1" connect="1" arrows="1" fold="1" page="1" pageScale="1" pageWidth="827" pageHeight="1169" math="0" shadow="0">
      <root>
        <mxCell id="0" />
        <mxCell id="1" parent="0" />
        <mxCell id="Q5Wlw16gAsBkRXOiy66L-1" value="user" style="rounded=0;whiteSpace=wrap;html=1;" vertex="1" parent="1">
          <mxGeometry x="100" y="90" width="120" height="60" as="geometry" />
        </mxCell>
        <mxCell id="Q5Wlw16gAsBkRXOiy66L-2" value="written_by&lt;br&gt;1:n" style="rhombus;whiteSpace=wrap;html=1;" vertex="1" parent="1">
          <mxGeometry x="315" y="260" width="105" height="90" as="geometry" />
        </mxCell>
        <mxCell id="Q5Wlw16gAsBkRXOiy66L-3" value="commented_on&lt;br&gt;m:n" style="rhombus;whiteSpace=wrap;html=1;" vertex="1" parent="1">
          <mxGeometry x="310" y="76" width="110" height="100" as="geometry" />
        </mxCell>
        <mxCell id="Q5Wlw16gAsBkRXOiy66L-4" value="articles" style="rounded=0;whiteSpace=wrap;html=1;" vertex="1" parent="1">
          <mxGeometry x="490" y="90" width="120" height="60" as="geometry" />
        </mxCell>
        <mxCell id="Q5Wlw16gAsBkRXOiy66L-5" value="" style="endArrow=none;html=1;rounded=0;entryX=0.5;entryY=1;entryDx=0;entryDy=0;" edge="1" parent="1" target="Q5Wlw16gAsBkRXOiy66L-4">
          <mxGeometry width="50" height="50" relative="1" as="geometry">
            <mxPoint x="400" y="290" as="sourcePoint" />
            <mxPoint x="450" y="240" as="targetPoint" />
          </mxGeometry>
        </mxCell>
        <mxCell id="Q5Wlw16gAsBkRXOiy66L-6" value="" style="endArrow=none;html=1;rounded=0;exitX=0;exitY=0;exitDx=0;exitDy=0;entryX=0.5;entryY=1;entryDx=0;entryDy=0;" edge="1" parent="1" source="Q5Wlw16gAsBkRXOiy66L-2" target="Q5Wlw16gAsBkRXOiy66L-1">
          <mxGeometry width="50" height="50" relative="1" as="geometry">
            <mxPoint x="160" y="250" as="sourcePoint" />
            <mxPoint x="160" y="160" as="targetPoint" />
          </mxGeometry>
        </mxCell>
        <mxCell id="Q5Wlw16gAsBkRXOiy66L-7" value="" style="endArrow=none;html=1;rounded=0;exitX=0.992;exitY=0.617;exitDx=0;exitDy=0;exitPerimeter=0;" edge="1" parent="1" source="Q5Wlw16gAsBkRXOiy66L-1" target="Q5Wlw16gAsBkRXOiy66L-3">
          <mxGeometry width="50" height="50" relative="1" as="geometry">
            <mxPoint x="220" y="130" as="sourcePoint" />
            <mxPoint x="270" y="80" as="targetPoint" />
          </mxGeometry>
        </mxCell>
        <mxCell id="Q5Wlw16gAsBkRXOiy66L-9" value="" style="endArrow=none;html=1;rounded=0;entryX=0;entryY=0.5;entryDx=0;entryDy=0;exitX=1;exitY=0.5;exitDx=0;exitDy=0;" edge="1" parent="1" source="Q5Wlw16gAsBkRXOiy66L-3" target="Q5Wlw16gAsBkRXOiy66L-4">
          <mxGeometry width="50" height="50" relative="1" as="geometry">
            <mxPoint x="414" y="130" as="sourcePoint" />
            <mxPoint x="464" y="80" as="targetPoint" />
          </mxGeometry>
        </mxCell>
        <mxCell id="Q5Wlw16gAsBkRXOiy66L-10" value="" style="shape=partialRectangle;whiteSpace=wrap;html=1;bottom=0;right=0;fillColor=none;rotation=-180;" vertex="1" parent="1">
          <mxGeometry x="420" y="150" width="150" height="300" as="geometry" />
        </mxCell>
        <mxCell id="Q5Wlw16gAsBkRXOiy66L-11" value="" style="shape=partialRectangle;whiteSpace=wrap;html=1;bottom=0;right=0;fillColor=none;rotation=-90;" vertex="1" parent="1">
          <mxGeometry x="82.5" y="207.5" width="305" height="190" as="geometry" />
        </mxCell>
        <mxCell id="Q5Wlw16gAsBkRXOiy66L-12" value="likes&lt;br&gt;m:n" style="rhombus;whiteSpace=wrap;html=1;" vertex="1" parent="1">
          <mxGeometry x="325" y="410" width="105" height="90" as="geometry" />
        </mxCell>
        <mxCell id="Q5Wlw16gAsBkRXOiy66L-19" value="subscription&lt;br&gt;m:n" style="rhombus;whiteSpace=wrap;html=1;" vertex="1" parent="1">
          <mxGeometry x="-130" y="207.5" width="110" height="102.5" as="geometry" />
        </mxCell>
        <mxCell id="Q5Wlw16gAsBkRXOiy66L-20" value="" style="shape=partialRectangle;whiteSpace=wrap;html=1;bottom=0;right=0;fillColor=none;rotation=-180;" vertex="1" parent="1">
          <mxGeometry x="-20" y="150" width="130" height="110" as="geometry" />
        </mxCell>
        <mxCell id="Q5Wlw16gAsBkRXOiy66L-21" value="" style="shape=partialRectangle;whiteSpace=wrap;html=1;bottom=0;right=0;fillColor=none;" vertex="1" parent="1">
          <mxGeometry x="-80" y="120" width="180" height="90" as="geometry" />
        </mxCell>
        <mxCell id="Q5Wlw16gAsBkRXOiy66L-23" value="" style="endArrow=none;html=1;rounded=0;exitX=0.25;exitY=0;exitDx=0;exitDy=0;" edge="1" parent="1" source="Q5Wlw16gAsBkRXOiy66L-1" target="Q5Wlw16gAsBkRXOiy66L-24">
          <mxGeometry width="50" height="50" relative="1" as="geometry">
            <mxPoint x="40" y="50" as="sourcePoint" />
            <mxPoint x="80" y="-20" as="targetPoint" />
          </mxGeometry>
        </mxCell>
        <mxCell id="Q5Wlw16gAsBkRXOiy66L-24" value="notify&lt;br&gt;m:n" style="rhombus;whiteSpace=wrap;html=1;" vertex="1" parent="1">
          <mxGeometry x="40" y="-60" width="80" height="80" as="geometry" />
        </mxCell>
        <mxCell id="Q5Wlw16gAsBkRXOiy66L-25" value="" style="endArrow=none;html=1;rounded=0;" edge="1" parent="1">
          <mxGeometry width="50" height="50" relative="1" as="geometry">
            <mxPoint x="60" y="-40" as="sourcePoint" />
            <mxPoint x="10" y="-90" as="targetPoint" />
          </mxGeometry>
        </mxCell>
        <mxCell id="Q5Wlw16gAsBkRXOiy66L-26" value="notifications" style="rounded=0;whiteSpace=wrap;html=1;" vertex="1" parent="1">
          <mxGeometry x="-110" y="-110" width="120" height="50" as="geometry" />
        </mxCell>
        <mxCell id="Q5Wlw16gAsBkRXOiy66L-28" value="(0,*)" style="text;html=1;strokeColor=none;fillColor=none;align=center;verticalAlign=middle;whiteSpace=wrap;rounded=0;" vertex="1" parent="1">
          <mxGeometry x="-90" y="176" width="60" height="30" as="geometry" />
        </mxCell>
        <mxCell id="Q5Wlw16gAsBkRXOiy66L-29" value="(0,*)" style="text;html=1;strokeColor=none;fillColor=none;align=center;verticalAlign=middle;whiteSpace=wrap;rounded=0;" vertex="1" parent="1">
          <mxGeometry x="-10" y="230" width="60" height="30" as="geometry" />
        </mxCell>
        <mxCell id="Q5Wlw16gAsBkRXOiy66L-30" value="" style="endArrow=none;html=1;rounded=0;" edge="1" parent="1">
          <mxGeometry width="50" height="50" relative="1" as="geometry">
            <mxPoint x="-140" y="-10" as="sourcePoint" />
            <mxPoint x="-90" y="-60" as="targetPoint" />
          </mxGeometry>
        </mxCell>
        <mxCell id="Q5Wlw16gAsBkRXOiy66L-32" value="content" style="ellipse;whiteSpace=wrap;html=1;" vertex="1" parent="1">
          <mxGeometry x="-210" y="-20" width="90" height="40" as="geometry" />
        </mxCell>
        <mxCell id="Q5Wlw16gAsBkRXOiy66L-33" value="(0,*)" style="text;html=1;strokeColor=none;fillColor=none;align=center;verticalAlign=middle;whiteSpace=wrap;rounded=0;" vertex="1" parent="1">
          <mxGeometry x="10" y="-90" width="60" height="30" as="geometry" />
        </mxCell>
        <mxCell id="Q5Wlw16gAsBkRXOiy66L-34" value="(0,*)" style="text;html=1;strokeColor=none;fillColor=none;align=center;verticalAlign=middle;whiteSpace=wrap;rounded=0;" vertex="1" parent="1">
          <mxGeometry x="100" y="20" width="60" height="30" as="geometry" />
        </mxCell>
        <mxCell id="Q5Wlw16gAsBkRXOiy66L-35" value="(0,*)" style="text;html=1;strokeColor=none;fillColor=none;align=center;verticalAlign=middle;whiteSpace=wrap;rounded=0;" vertex="1" parent="1">
          <mxGeometry x="220" y="90" width="60" height="30" as="geometry" />
        </mxCell>
        <mxCell id="Q5Wlw16gAsBkRXOiy66L-36" value="(0,*)" style="text;html=1;strokeColor=none;fillColor=none;align=center;verticalAlign=middle;whiteSpace=wrap;rounded=0;" vertex="1" parent="1">
          <mxGeometry x="430" y="90" width="60" height="30" as="geometry" />
        </mxCell>
        <mxCell id="Q5Wlw16gAsBkRXOiy66L-37" value="(0,*)" style="text;html=1;strokeColor=none;fillColor=none;align=center;verticalAlign=middle;whiteSpace=wrap;rounded=0;" vertex="1" parent="1">
          <mxGeometry x="240" y="190" width="60" height="30" as="geometry" />
        </mxCell>
        <mxCell id="Q5Wlw16gAsBkRXOiy66L-38" value="(1,1)" style="text;html=1;strokeColor=none;fillColor=none;align=center;verticalAlign=middle;whiteSpace=wrap;rounded=0;" vertex="1" parent="1">
          <mxGeometry x="440" y="190" width="60" height="30" as="geometry" />
        </mxCell>
        <mxCell id="Q5Wlw16gAsBkRXOiy66L-39" value="(0,*)" style="text;html=1;strokeColor=none;fillColor=none;align=center;verticalAlign=middle;whiteSpace=wrap;rounded=0;" vertex="1" parent="1">
          <mxGeometry x="190" y="420" width="60" height="30" as="geometry" />
        </mxCell>
        <mxCell id="Q5Wlw16gAsBkRXOiy66L-40" value="(0,*)" style="text;html=1;strokeColor=none;fillColor=none;align=center;verticalAlign=middle;whiteSpace=wrap;rounded=0;" vertex="1" parent="1">
          <mxGeometry x="490" y="420" width="60" height="30" as="geometry" />
        </mxCell>
        <mxCell id="Q5Wlw16gAsBkRXOiy66L-41" value="" style="endArrow=none;html=1;rounded=0;" edge="1" parent="1">
          <mxGeometry width="50" height="50" relative="1" as="geometry">
            <mxPoint x="-180" y="-80" as="sourcePoint" />
            <mxPoint x="-110" y="-90" as="targetPoint" />
          </mxGeometry>
        </mxCell>
        <mxCell id="Q5Wlw16gAsBkRXOiy66L-42" value="timestamp" style="ellipse;whiteSpace=wrap;html=1;" vertex="1" parent="1">
          <mxGeometry x="-250" y="-95" width="90" height="40" as="geometry" />
        </mxCell>
        <mxCell id="Q5Wlw16gAsBkRXOiy66L-43" value="" style="endArrow=none;html=1;rounded=0;entryX=0.25;entryY=0;entryDx=0;entryDy=0;" edge="1" parent="1" target="Q5Wlw16gAsBkRXOiy66L-26">
          <mxGeometry width="50" height="50" relative="1" as="geometry">
            <mxPoint x="-150" y="-140" as="sourcePoint" />
            <mxPoint x="-110" y="-170" as="targetPoint" />
          </mxGeometry>
        </mxCell>
        <mxCell id="Q5Wlw16gAsBkRXOiy66L-44" value="host_id" style="ellipse;whiteSpace=wrap;html=1;" vertex="1" parent="1">
          <mxGeometry x="-210" y="-170" width="70" height="50" as="geometry" />
        </mxCell>
        <mxCell id="Q5Wlw16gAsBkRXOiy66L-46" value="" style="shape=partialRectangle;whiteSpace=wrap;html=1;bottom=0;right=0;fillColor=none;rotation=-90;" vertex="1" parent="1">
          <mxGeometry x="-107.5" y="-32.5" width="90" height="35" as="geometry" />
        </mxCell>
        <mxCell id="Q5Wlw16gAsBkRXOiy66L-47" value="is_about&lt;br&gt;1:n" style="rhombus;whiteSpace=wrap;html=1;" vertex="1" parent="1">
          <mxGeometry x="-60" y="-4" width="80" height="80" as="geometry" />
        </mxCell>
        <mxCell id="Q5Wlw16gAsBkRXOiy66L-48" value="" style="endArrow=none;html=1;rounded=0;exitX=0;exitY=0.25;exitDx=0;exitDy=0;entryX=1;entryY=1;entryDx=0;entryDy=0;" edge="1" parent="1" source="Q5Wlw16gAsBkRXOiy66L-1" target="Q5Wlw16gAsBkRXOiy66L-47">
          <mxGeometry width="50" height="50" relative="1" as="geometry">
            <mxPoint x="80" y="100" as="sourcePoint" />
            <mxPoint y="60" as="targetPoint" />
          </mxGeometry>
        </mxCell>
        <mxCell id="Q5Wlw16gAsBkRXOiy66L-49" value="(1,1)" style="text;html=1;strokeColor=none;fillColor=none;align=center;verticalAlign=middle;whiteSpace=wrap;rounded=0;" vertex="1" parent="1">
          <mxGeometry x="-90" y="-35" width="60" height="30" as="geometry" />
        </mxCell>
        <mxCell id="Q5Wlw16gAsBkRXOiy66L-50" value="(0,*)" style="text;html=1;strokeColor=none;fillColor=none;align=center;verticalAlign=middle;whiteSpace=wrap;rounded=0;" vertex="1" parent="1">
          <mxGeometry x="60" y="60" width="60" height="30" as="geometry" />
        </mxCell>
        <mxCell id="Q5Wlw16gAsBkRXOiy66L-52" value="" style="endArrow=none;html=1;rounded=0;" edge="1" parent="1">
          <mxGeometry width="50" height="50" relative="1" as="geometry">
            <mxPoint x="140" y="90" as="sourcePoint" />
            <mxPoint x="170" y="30" as="targetPoint" />
          </mxGeometry>
        </mxCell>
        <mxCell id="Q5Wlw16gAsBkRXOiy66L-53" value="id; username; password; fname; lname; DOB; description; icon; admin" style="ellipse;whiteSpace=wrap;html=1;" vertex="1" parent="1">
          <mxGeometry x="160" y="-20" width="120" height="110" as="geometry" />
        </mxCell>
        <mxCell id="Q5Wlw16gAsBkRXOiy66L-54" value="" style="endArrow=none;html=1;rounded=0;" edge="1" parent="1">
          <mxGeometry width="50" height="50" relative="1" as="geometry">
            <mxPoint x="360" y="80" as="sourcePoint" />
            <mxPoint x="410" y="30" as="targetPoint" />
          </mxGeometry>
        </mxCell>
        <mxCell id="Q5Wlw16gAsBkRXOiy66L-55" value="id, content, timestamp" style="ellipse;whiteSpace=wrap;html=1;" vertex="1" parent="1">
          <mxGeometry x="354" y="-20" width="96" height="60" as="geometry" />
        </mxCell>
        <mxCell id="Q5Wlw16gAsBkRXOiy66L-56" value="" style="endArrow=none;html=1;rounded=0;" edge="1" parent="1">
          <mxGeometry width="50" height="50" relative="1" as="geometry">
            <mxPoint x="500" y="90" as="sourcePoint" />
            <mxPoint x="550" y="40" as="targetPoint" />
          </mxGeometry>
        </mxCell>
        <mxCell id="Q5Wlw16gAsBkRXOiy66L-57" value="id; title; content; date_of_publish;&amp;nbsp;" style="ellipse;whiteSpace=wrap;html=1;" vertex="1" parent="1">
          <mxGeometry x="530" y="-20" width="120" height="80" as="geometry" />
        </mxCell>
        <mxCell id="Q5Wlw16gAsBkRXOiy66L-58" value="" style="endArrow=none;html=1;rounded=0;" edge="1" parent="1">
          <mxGeometry width="50" height="50" relative="1" as="geometry">
            <mxPoint x="-60" y="-110" as="sourcePoint" />
            <mxPoint x="-70" y="-160" as="targetPoint" />
          </mxGeometry>
        </mxCell>
        <mxCell id="Q5Wlw16gAsBkRXOiy66L-59" value="id" style="ellipse;whiteSpace=wrap;html=1;" vertex="1" parent="1">
          <mxGeometry x="-90" y="-190" width="78" height="40" as="geometry" />
        </mxCell>
      </root>
    </mxGraphModel>
  </diagram>
</mxfile>
